<?xml version="1.0" encoding="UTF-8"?><svg id="Layer_1" xmlns="http://www.w3.org/2000/svg" viewBox="0 0 480.74 878.13"><path d="M185.48,394.91c.51-7.17,1.18-14.34,1.58-21.52.5-9.09,1.1-18.2,1.11-27.3,0-14.07-.48-28.13-.72-42.2-.27-16.15-.66-32.29-.71-48.44-.05-13.45.11-26.91-.75-40.36l-.06-37.79c.88-8.15.57-16.31.77-24.45.25-10.22,1.03-20.43,1.42-30.65.21-5.61-.21-11.19-1.89-16.61-.63-2.01-1.52-3.86-3.09-5.33-1.93-1.81-3.9-2.09-6.04-.51-1.4,1.03-2.56,2.38-3.82,3.6-.57.55-1.08,1.24-2,.63-.65-2.78.28-5.71-.58-8.4-4.65-.83-7.4-.81-11.23.13v5.81c1.95,1.53,2.34,3.82,2.2,6.33-.25,4.47-.44,8.94-.65,13.42-.55,11.81-1.34,23.62-1.59,35.44-.33,16.05.22,82.86.32,95.82.11,14.39.38,28.78.58,43.16.09,6.4.25,12.8.26,19.19.03,15.67.25,31.35-.11,47.02-.25,11.01-1.31,22.01-2.05,33.02-.19,2.87-.44,5.74-.8,8.59-.24,1.87-.73,3.71-1.11,5.54-1.24.48-2.2.85-3.1,1.2-3.29-5.27-3.32-5.34-3.59-11-.07-1.43-.07-2.88-.06-4.32.06-7.03.19-14.07.2-21.11,0-12.47.19-24.93-.52-37.4-.51-8.77-.53-17.58-.62-26.37-.19-19.19-.29-38.39-.4-57.58-.09-13.59-.03-27.19-.24-40.78,0-.23-.31-49.7-.41-59.29-.15-14.38.22-28.77-.78-43.14-.89-12.76-1.65-25.53-2.5-38.29-.1-1.57-.42-3.12-.66-4.79-2.55-.72-4.61-2.41-7.41-2.03-.41,1.43-.82,2.63-1.1,3.87-2.18,9.66-4.58,19.28-6.44,29.01-2.73,14.27-5.79,28.5-7.49,42.97-1.64,14-2.21,28.01-1.79,42.09.22,7.43.71,14.53.71,22.05,0,0,.51,20.54.34,30.12-.15,8.31.15,16.62.34,24.93.27,12.15.65,24.29.95,36.44.51,20.47.84,40.94-.7,61.37-.58,7.64-1.88,15.22-2.78,22.84-.36,2.98-1.41,5.51-3.98,6.94-.34,3.78-1.17,7.23-.57,10.85,3.31,2.06,6.55,4.12,9.82,6.1.58.35,1.35.39,2.19.62.21-2.09.41-3.83.54-5.58.14-1.89.21-3.79.32-5.88-3.87-2.32-3.95-6-3.63-9.78.34-3.98.64-7.97,1.16-11.93,1.55-11.92,1.9-23.9,2.04-35.89.27-24.64-.72-49.25-1.17-73.87-.33-18.06.68-37.77-.26-55.83l-.11-9.93.25-46.23c.44-6.64.77-13.17,1.59-18.82.18-1.23.55-2.43.88-3.85,3.98,1.28,6.87,3.83,10.44,5.69,0,1.65-.01,3.23,0,4.81.04,21.28.09,43.41.16,64.7,0,0,.29,10.34.3,12.19.12,22.72.07,45.43.2,68.15.09,14.07.35,28.14.57,42.21.25,15.81,1.07,31.62.59,47.44-.2,6.87-.26,13.75-.38,20.63-.03,1.76-.04,3.52-1.17,4.95-1.13.33-2.17.64-3.29.96-.75,3.89-1.21,7.64-.91,11.42,3.4,2.71,7.2,4.41,10.85,6.39,3.74,2.02,7.66,3.7,11.36,5.83,3.56,2.05,7.12,4.16,11.77,5.74.19-3.15.4-5.68.48-8.21.02-.77-.16-1.64-.54-2.3-1.49-2.64-1.58-5.49-1.39-8.38.65-10.05,1.33-20.1,1.99-30.15.46-7.17,1.1-14.34,1.3-21.53.22-8.46.1-16.94.04-25.42-.08-10.07-.25-20.14-.38-30.21-.08-6.24-.13-12.48-.23-18.71-.23-13.75-.56-27.5-.7-41.25-.06-6.55.26-13.1.35-19.65.05-3.81.09-7.62.11-11.44-.03-2.15-.34-32.28-.64-45.48-.12-5.1.14-10.22.36-15.33.39-9.1.79-18.21,1.4-27.3.19-2.83.61-5.52,1.35-8.28.4-1.5,1.38-3.46,3.27-3.56,1.51-.07,2.74,1.37,3.05,2.63.54,2.16.78,4.12.8,6.32.05,5.75-.15,11.51-.32,17.26-.21,6.87-.71,13.74-.67,20.61.08,14.07-.67,28.14-.28,42.2.05,1.57.26,44.09.36,55.6.12,12.47.5,24.94.69,37.4.14,9.6.14,19.2.23,28.79.05,5.92.22,11.84.18,17.76-.07,9.27-.1,18.55-.46,27.81-.32,7.98-1.06,15.95-1.65,23.92-.6,7.97-1.24,15.93-1.85,23.9-.18,2.3-.48,4.52-3,5.47-.23,2.58-.47,4.96-.64,7.35-.05.61.1,1.23.14,1.74,5.21,3.05,11.15,5.46,14.73,5.95.12-.61.32-1.22.34-1.84.09-2.99.69-5.96-1.62-8.66-.9-1.05-.83-3.03-.96-4.61-.12-1.42.06-2.87.16-4.3.47-7.02.94-14.04,1.45-21.06ZM129.58,117.32c-.17-4.01,2.71-22.31,4.91-31.31.13-.55.53-1.03,1.29-2.45.98,12.9,1.64,24.8,1.69,37.06-3.03-.58-5.27-2.11-7.89-3.3Z" style="fill:#fff; stroke-width:0px;"/><path d="M232.18,150.48c-.63,9.1-.57,18.2-.13,27.31.25,5.11.2,10.23.3,15.35.06,2.7.12,3.78.46,11,.17,3.54.11,9.18.11,9.18.48,10.69.39,10.97.86,21.67,0,0,.7,6.88.64,13.85-.05,6.55.1,13.11.19,19.67.24,16.78.47,33.57.76,50.35.12,6.55.44,13.1.56,19.65.21,11.2-.45,22.37-1.09,33.55-.3,5.42-.86,10.83-1.23,16.25-.8,11.48-1.62,22.96-2.3,34.45-.22,3.67-.09,7.36-.01,11.03.04,2.07.26,4.15,1.64,6.17.85.21,1.88.46,3.08.75.11,1.81.22,3.54.31,5-3.08,4.68-3.46,6.1-7.54,6.7-2.33.34-3.62-1.74-4.53-3.72-1.56-3.39-2.38-6.99-2.38-10.69.01-6.55.1-13.11.41-19.65.31-6.71.92-13.39,1.42-20.09.54-7.33,1.2-14.66,1.62-22,.51-8.93,1.06-17.87,1.18-26.82.16-11.67-.03-23.35-.17-35.03-.2-17.1-.55-34.21-.73-51.32-.12-12.46-.18-24.92-.18-37.39.14-.61-.9-12.81-1.04-15.45-.29-5.58-1.25-11.51-1.25-11.51-.39-18.07-.86-36.13-.23-54.2.07-2.23.01-4.46.01-6.87-.65-.76-1.59-1.5-2.03-2.47-.48-1.06-.5-2.34-.8-3.99-.99.71-1.81,1.02-2.12,1.61-.51.96-.77,2.08-.99,3.17-2.07,10.24-2.23,20.65-2.4,31.02-.15,8.78.23,17.59.83,26.36.59,8.68,2.47,30.06,2.47,30.23.01.14-.06,3.09-.06,3.09v.09c-.05,1.82-.08,3.64-.11,5.46-.16,15.83-.68,31.64-.37,47.45.29,14.06.75,28.13.91,42.19.1,8.95.02,17.92-.41,26.86-.36,7.5-1.14,14.99-2.13,22.43-1.96,14.73-4.12,29.44-6.35,44.14-2.44,16.12-4.75,49.27-8.53,65.14-.81,3.41-2.01,6.73-3.23,10.02-.49,1.3-1.42,2.5-2.38,3.53-1.27,1.35-3.56,1.27-4.65-.23-.92-1.26-1.82-2.74-2.09-4.24-.99-5.62-.51-11.15,1.95-16.39.26-.55.48-1.6,1.45-1.68s1.61,1.07,2.05,1.76c1,1.57,1.15,3.66,2.81,4.73,1.39-.2,1.57-1.25,1.77-2.1.88-3.6,1.18-7.25.89-10.95-.86-10.68-1.44-38.37-1.46-49.09-.05-19.35-.01-38.71-.2-58.07-.1-9.74-.55-19.49-1-29.23-.78-16.94-.76-33.88-.57-50.83.17-15.19-.05-24.39-.16-39.59-.04-4.76.72-15.82.68-20.59-.04-1.64.13-15.44.12-20.72-.04-11.83-2.06-23.67-2.22-35.5-.16-11.99-.45-23.98-.75-35.96-.06-2.39-.39-4.78-.67-7.16-.09-.78-.18-1.75-.66-2.26-2.43-2.61-1.75-5.59-1.3-8.91.82.13,1.58.11,2.22.39,3.82,1.63,7.62,3.31,11.4,5.02.71.32,1.32.83,2.1,1.34-.18,2.43-.35,4.8-.53,7.24-.87.54-1.66,1.04-2.74,1.72-.08,1.38-.25,2.96-.25,4.54.05,13.6.14,27.19.21,40.79.07,14.39-.13,18.27.61,32.64.9,17.34.79,21.5.56,18.71-.1-1.24.05,8.49.08,9.73.1,4.63.39,3.27.35,7.9-.11,11.18.1,22.36.04,33.54-.06,11.2-.15,22.4.03,33.6.18,11.82.78,23.64.99,35.47.23,12.31.24,24.62.3,36.93.04,8.16,0,16.31.02,24.47.01.59.14,1.19.21,1.84,1.21-.56,1.21-1.57,1.34-2.49,2.33-16.78,4.75-33.55,5.69-50.49.18-3.19.24-6.4.23-9.59-.04-14.08-.03-28.16-.22-42.23-.2-14.06-.64-28.13-.92-42.19-.19-9.27.49-18.55.67-27.81.04-1.82.1-3.64.16-5.46l-1.82-14.1c-.84-13.4-1.64-26.8-1.66-40.24-.02-10.72.51-21.41,1.72-32.07.09-.79.1-1.6.2-2.39.41-3.45.27-6.74-2.61-8.92v-8.26c1.2.23,2.17.21,2.94.6,2.71,1.36,5.34,2.88,8.02,4.31,1.11.58,2.27,1.08,3.56,1.68,1.9-3.06,2.29-6.46,3.5-9.54,1.16-2.96,2.19-5.97,3.39-9.28,1.17.36,2.15.66,3.29,1.01.59,7.8-1.44,15.38-.84,23.24,1.76,1.41,5.31,2.93,6.92,4.22-.09,6.91-.69,15.49-1.53,22.67-2.22-.96-4.02-5.5-5.79-6.44-.94.02-.83.81-.87,1.37Z" style="fill:#fff; stroke-width:0px;"/><path d="M217.92,222.83c-.01.26-.02.53-.02.79h-.02c0-.18.04-.79.04-.79Z" style="fill:#fff; stroke-width:0px;"/><path d="M217.92,222.83c-.01.26,0-.26,0,0" style="fill:#fff; stroke-width:0px;"/><path d="M100.22,153.85c-.06,11.35-.46,16.19-.46,16.19.24,10.51.47,25.07.44,26.77-.12,6.24-.23,12.47-.25,18.71-.03,13.6-.11,27.2.02,40.79.14,13.91.52,27.81.75,41.72.11,6.23.18,12.47.17,18.71-.01,14.71-.34,33.29-.39,48,0,1.6.02,3.2,0,4.8-.03,2.44.36,4.74,1.62,6.9.54.93,1.01,2.1.97,3.13-.15,3.48-.42,5.91-.78,10.14-5.78-3.87-13.41-7.6-13.37-8.37.18-3.19,1.47-6.37,1.66-9.56.1-1.61.25-3.03,1.65-4.28.81-.71,1.1-2.27,1.18-3.48.33-4.78.95-14.44.91-19.23-.18-22.86-.49-44.72-.75-67.59-.08-6.39-.15-12.79-.22-19.18-.12-11.51-.41-23.03-.33-34.53.06-10.76.88-16.25,1.04-27,0,0,.09-16.39-1.16-24.32-.34-2.12-.15-1.25-1.33-4.96-.52-1.61-1.04-2.1-1.06-2.39-.02-.24-.07-2.17-.07-2.26-.03-.36.5-1.04.85-2.19,1.08-3.58,1.89-5.2,2.34-13.29.9-16.24.16-14.96.33-30.58.08-7.98.1-15.92.57-23.9.06-1.01.11-2.02.11-3.04,0-2.01-.19-4.01-.82-5.99-.3-.91-.7-1.69-1.26-2.28-.56-.6-1.27-1.15-2.24-1.22-1.5-.11-2.41,1.05-2.91,2.24-.61,1.46-1.11,3.01-1.34,4.57-.38,2.53-.54,5.08-.71,7.63-.65,9.57-1.33,19.14-1.87,28.71-.32,5.86-1.19,20.52-1.19,26.4,0,2.27.06,4.55.2,6.82.09,1.43-.37,10.58-.37,10.58,0,6,0,21.22,0,21.22h0c-.12,11.49-.56,22.97-.64,34.46-.11,13.75.13,43.18.14,44.14.25,22.07.46,44.13.78,66.19.13,8.47.49,16.46.82,24.92.06,1.57.24,3.25.86,4.66.88,2,1.07,3.96.88,6.07-.32,3.6-.37,6.42-.77,10.13-4.15-2.83-10.47-6.24-14.65-10.35.13-5.84.41-13.1.41-13.1,0,0,1.31-3.48,1.92-4.45s1.01-.94,1.09-2.35c.36-6.86.54-17.09.11-23.97-.41-6.37-.16-12.79-.3-19.18-.29-12.63.96-25.46.59-38.08-.18-5.91-.28-12.68-.21-18.6.05-4.87.85-31.36.99-40.31.12-7.68.19-15.36.21-23.05h-.01c-.1-1.94,1.08-15.62-.22-20.85-.69-2.79-1.75-5.48-2.49-8.25-.36-1.37-.56-2.83-.51-4.24.18-5.27.49-10.53.77-16.03.73-.26,1.44-.51,2.23-.78,1.11-1,1.21-10.74,1.34-12.17.29-3.02.05-6.08.24-9.11.77-12.45,1.51-24.89,2.28-37.34.12-1.91.33-3.82.5-5.73.28-3.09.37-6.12-2.63-8.13.15-1.43.27-2.66.41-4.06,3.82-.53,7.42-.46,11.26.06.15,2.17.29,4.21.43,6.15.96.68,1.24.02,1.9-.45,1.3-.92,1.73-1.7,3.13-2.44,2.02-1.06,3.75-1.79,6.34-.63,2.13.95,2.56,2.12,3.29,4.27.98,2.9,1.07,6.1.99,9.17-.16,6.39-.25,12.79-.59,19.17-.52,9.58-1.36,19.14-1.82,28.71-.49,10.38-.91,20.77-.97,31.15Z" style="fill:#fff; stroke-width:0px;"/><rect x="82.11" y="186.22" width="0" height=".01" style="fill:#fff; stroke-width:0px;"/><path d="M268.1,449.3q-.23,4.97,3.26,8.74c-.14,1.35-.3,2.91-.46,4.45-3.27.04-8.47-1.38-14.94-4.09-.08-1.38-.18-2.93-.27-4.41.98-1.04,2.13-1.81,2.61-2.88.57-1.26.71-2.78.8-4.2.44-7.34.72-14.69,1.2-22.03.77-11.64,1.7-23.27,2.46-34.92.59-8.93,1.37-17.87.95-26.83-.21-4.29-2.44-101.14-2.78-105.43-.16-2.02-.81-3.6-2.34-3.46-1.33.12-1.84,5.83-1.88,6.47-.21,4.17-.28,68.23-1.19,94.07-.33,9.42-.56,18.68-1.18,28.1-.73,11-1.7,21.99-2.43,33-.63,9.57-1.07,19.15-1.57,28.73-.14,2.75-.16,5.49,2.3,7.4-.12,1.76-.22,3.34-.35,5.25-5.27-.56-9.8-2.89-14.59-3.88-.97-2.2-.32-4.07-.3-6.14,2.92-.64,3.57-2.71,3.71-5.34.57-10.38,1.21-20.75,1.94-31.11.75-10.69,1.67-21.36,2.44-32.04,1.1-15.16,1.68-30.34,1.32-45.54-.13-5.92-.21-11.83-.31-17.75-.13-8.79-.29-17.59-.39-26.38-.21-18.87-.55-37.75-.53-56.62.01-22.87-.66-41.68.4-65.02,0,0,.61-27.77,1.06-39,.62-15.18-.57-20.34,2.12-35.28,1.95-10.83,2.24-15.46,3.18-29.18.49-7.04,1.25-13.3-.72-16.22-.46-.67-1.79-.73-1.96-2.11,0,0,.41-2.26.36-3.35,0,0,3.87-.57,7.24.2,3.63.82,4.94,1.46,4.94,1.46.11,2.97-3.36,39.28-3.49,43.05-.42,12.54-2.28,18.79-2.99,27.21-1.16,13.75-.12,30.52-.52,36.27-1.09,15.62.08,15.66.25,31.33.07,5.91-.19,11.83-.28,17.75-.02.94.08,1.88.15,3.46,1.52-1.71,1.15-3.42,1.76-4.75.67-1.45,1.13-2.99,1.75-4.46.61-1.47,1.18-2.99,2-4.35.78-1.29,1.16-3.05,3.38-3.47.41.46,1.04.96,1.39,1.6,2.38,4.39,3.98,8.96,4.43,14.04.96,10.84,1.38,21.69,1.4,32.57.02,9.92.24,19.83.16,29.75-.07,9.75-.42,19.5-.62,29.25-.19,8.79-.23,17.57.38,26.36.74,10.69.98,21.4,1.63,32.1.75,12.32-.22,24.59-1.05,36.86-.77,11.49-1.53,22.97-2.27,34.46-.54,8.61-1.04,17.23-1.55,25.84-.01.16-.03.32-.04.48Z" style="fill:#fff; stroke-width:0px;"/><path d="M188.31,576.03c-1.88-.89-2.87,1.35-3.29,2.72-.6,1.98-1.08,4.02-1.28,6.07-.27,2.86-.33,5.75-.3,8.62.14,11.83.2,23.67.57,35.49.44,13.9,1.26,27.78,1.76,41.68.48,13.42.76,26.84,1.1,40.27.34,13.42.62,26.85.98,40.27.26,9.43.49,18.86.97,28.27.77,15.18.95,30.36.96,45.55,0,2.86.07,5.76,2.27,8.07.38.4.5,1.18.51,1.8.04,1.89-.02,3.78-.05,5.9-2.93.54-5.2-.93-7.61-1.39-2.48-.48-4.9-1.31-7.38-2-.77-2.38-.32-4.61-.39-6.78.99-1.06,2.26-1.93,2.78-3.12.62-1.41.81-3.11.79-4.67-.11-9.27-.3-18.54-.51-27.81-.17-7.35-.4-14.7-.61-22.06-.31-10.55-.68-21.09-.95-31.63-.3-11.83-.43-23.65-.78-35.48-.42-14.22-1-28.43-1.52-42.64-.51-14.22-1.14-28.43-1.51-42.65-.39-15.02-.55-30.05-.77-45.08-.04-2.81-.06-5.54-2.87-6.89v-6.81c3.72-.64,7.23-1.45,11.22-.94.28,2.89.56,5.69.82,8.29,1.06.67,1.41,0,1.78-.47.89-1.13,1.62-2.39,2.58-3.45,2.66-2.94,5.72-2.86,8.02.43,1.35,1.93,2.27,4.2,3.21,6.39.62,1.45.92,3.04,1.46,4.9,3.37-2.59,4.11-8.6,9.03-8.32,3.64.2,5.5,3.63,6.57,6.89,1.09,3.32,1.78,6.79,2.4,10.24,1.14,6.33.82,12.75,1.01,19.14.42,14.38.59,28.77,1.23,43.14.81,18.21,1.66,36.4,1.89,54.63.19,14.39.58,28.77.94,43.15.26,10.39.63,20.77.96,31.15.31,9.74.66,19.49.94,29.23.18,6.07.36,12.14.35,18.21,0,3.34-.47,6.66-.05,10.04.36,2.92.39,5.83,3.14,7.2.52,3.17.56,5.84.16,8.51-3.43-.02-10.01-1.68-14.95-3.75-.68-2.42-.24-4.97-.34-7.58.74-.96,1.78-1.85,2.18-2.96.47-1.31.47-2.82.5-4.24.3-14.07.27-28.14-.52-42.2-.38-6.86-.41-13.74-.64-20.62-.43-12.94-.92-25.87-1.3-38.81-.19-6.39-.16-12.79-.25-19.19-.11-7.83-.12-15.67-.4-23.5-.55-15.49-1.3-30.98-1.9-46.47-.39-10.06-.63-20.13-.96-30.19-.19-5.91-.25-11.83-.68-17.72-.21-2.83-1.07-5.63-1.74-8.41-.31-1.27-1.73-2.95-2.79-2.71-.7.16-1.45,1.02-1.76,1.78-.64,1.62-1.15,3.34-1.36,5.06-.84,6.84-.82,13.72-.66,20.6.18,7.99.41,15.98.74,23.96.44,10.7,1.03,21.39,1.48,32.08.28,6.55.46,13.1.62,19.66.34,14.06.63,28.13.96,42.19.31,13.1.57,26.21,1,39.31.32,9.9.97,19.79,1.26,29.69.25,8.47.23,16.95.3,25.42.03,2.88-.06,5.76.01,8.64.07,2.73-.1,5.58,2.67,6.93v8.39c-4.97-.1-9.36-1.91-13.91-2.98-.99-2.47-.97-4.84-.85-7.43.64-.74,1.36-1.57,2.31-2.66.75-3.76.85-7.92.85-12.06-.01-6.07-.21-12.14-.37-18.22-.16-6.07-.36-12.14-.55-18.22-.32-10.38-.69-20.77-.96-31.15-.36-13.58-.63-27.17-.97-40.75-.3-11.99-.55-23.97-.99-35.95-.54-14.85-1.35-29.7-1.86-44.55-.4-11.34-.47-22.7-.8-34.04-.13-4.63-.48-9.26-.89-13.87-.15-1.73-.63-3.47-1.23-5.1-.36-.97-.99-2.07-1.8-2.46Z" style="fill:#fff; stroke-width:0px;"/><path d="M296.79,858.94v2.11c-1.15,1.13-7.82.74-14.97-.77-.12-1.26-.25-2.63-.39-4.11,2.83-1.37,2.63-4,2.63-6.3.02-9.43-.15-18.86-.29-28.29-.18-12.15-.32-24.3-.6-36.45-.22-9.91-.67-19.81-.92-29.71-.37-14.7-.64-29.4-.98-44.1-.29-12.46-.55-24.93-.98-37.39-.33-9.58-.9-19.15-1.4-28.73-.36-6.86-.63-13.73-1.22-20.58-.31-3.64-1.17-7.24-1.89-10.84-.31-1.55-1.65-3.47-2.78-3.35-.89.1-1.43,1.32-1.66,2.12-.6,2.14-1.1,4.34-1.35,6.54-.76,6.69-.34,13.4-.14,20.1.37,12.14,1.06,24.27,1.41,36.41.44,15.34.65,30.68.99,46.02.23,10.07.49,20.13.78,30.2.35,11.66.55,23.33,1.17,34.98,1.02,18.86.55,37.73.74,56.59.02,2.39.32,4.78.65,7.15.15,1.07.46,2.3,1.14,3.09,1.58,1.84,1.32,3.8.98,6.07-2.56.74-5.03-.03-7.52-.33-2.36-.29-4.79-.26-7.15-1.3-1.1-2.1-.53-4.33-.54-6.61.86-.68,1.71-1.35,2.86-2.26.17-2.34.49-4.88.51-7.41.06-9.11.19-18.22-.01-27.32-.27-12.3-.84-24.59-1.26-36.89-.17-4.95-.27-9.91-.41-14.86-.2-7.35-.44-14.7-.62-22.04-.14-5.75-.21-11.51-.34-17.26-.24-11.02-.51-22.05-.76-33.07-.13-5.75-.14-11.51-.36-17.26-.62-16.29-1.32-32.57-1.98-48.86-.26-6.39-.48-12.77-.71-19.16-.06-1.62-.09-3.3-1.22-4.54-1.8-1.96-1.89-4.32-1.88-6.73,0-1.25.16-2.5.27-4,3.7-.59,7.18-1.61,11.16-1.1.4,4.04.79,7.96,1.18,11.85,1.35.21,1.33-.83,1.7-1.38,1.33-1.98,2.42-4.15,3.94-5.97,1.62-1.93,3.6-1.82,5.45-.15,1.6,1.44,2.63,3.27,3.18,5.28.88,3.23,1.8,6.5,2.16,9.81.89,8.26,1.69,16.54,2.12,24.83.83,15.96,1.51,31.93,1.99,47.9.49,16.3.64,32.6,1,48.9.22,9.75.52,19.49.82,29.23.34,10.86.55,21.73,1.12,32.58,1.02,19.34.19,38.69.71,58.03.02.64-.01,1.28.01,1.92.18,3.93.55,4.68,3.62,7.41Z" style="fill:#fff; stroke-width:0px;"/><path d="M119.26,759.78c.15-8.63.22-17.27.48-25.9.13-4.47.54-8.93.94-13.39,1.03-11.3,2.25-22.59,3.15-33.9.61-7.69-.43-15.29-1.87-22.87-1.7-8.95-3.1-17.96-4.51-26.96-1.08-6.94-2.04-13.91-2.94-20.88-1.52-11.75-2.19-23.56-2.2-35.4,0-7.03.14-14.05,1.34-21.01.63-3.65,1.68-7.15,3.28-10.49,3.33-6.99,9.83-7.11,14.65-3.13,2.54,2.09,4.18,4.8,5.41,7.8,1.82,4.47,2.99,9.13,3.5,13.92.5,4.77.89,9.55,1.14,14.34.28,5.43.59,10.87.47,16.29-.28,12.3-.81,24.6-1.23,36.9-.12,3.36-.2,6.71-.33,10.07-.34,8.46-.63,16.93-1.06,25.39-.47,9.31.44,18.52,1.45,27.75.87,7.95,1.72,15.9,2.34,23.87,1.01,13.07,2,26.14,2.67,39.23.63,12.13,1,24.28,1.17,36.43.1,7.36-.35,11.4-2.29,19.35-.68,2.28-1.78,4.89-2.97,6.93-2.96,5.05-8.4,5.54-12.44,1.31-1.92-2.01-3.78-5.4-4.72-7.97-2.67-7.26-3.59-11.65-4.15-19.32-.68-9.24-.99-18.52-1.36-27.78-.14-3.51-.02-7.03-.02-10.55.04,0,.08,0,.12,0ZM126.42,551.97c-1.92,1.04-2.41,3.13-2.81,5.12-.56,2.81-1.05,5.67-1.2,8.52-.77,14.2-.58,28.41.22,42.6.54,9.71,1.6,19.4,2.69,29.07.53,4.74,1.62,9.43,2.57,14.12.16.77.93,1.41,1.85,2.72.45-2.12.91-3.49,1.02-4.88.35-4.61.75-9.23.82-13.85.27-17.08.52-34.16.57-51.23.02-7.65.06-15.34-1.16-22.93-.4-2.5-1.15-4.95-1.88-7.39-.33-1.11-1.16-1.9-2.69-1.86ZM134.2,818.51c2.94-.02,2.94-3.77,3.16-5.84.59-7.49.54-15.35.27-22.85-.47-12.91-1.04-25.83-1.74-38.73-.56-10.36-1.35-20.7-2.13-31.04-.2-2.7-.71-5.38-1.22-8.04-.15-.8-.25-1.9-1.78-2.13-.3.81-.76,1.62-.92,2.49-1.22,6.77-1.85,13.59-1.86,20.47-.02,11.82-.02,23.64,0,35.45.03,12.94,1.05,25.33,2.42,38.19.33,3.14.9,6.75,1.74,9.81.21.75.79,2.22,2.05,2.21Z" style="fill:#fff; stroke-width:0px;"/><path d="M256.1,837.89c-.2-3.51.66-4.7.63-8.21-.12-14.7.1-29.4-.74-44.1-.55-9.73-.72-19.48-.99-29.22-.36-12.62-.67-25.24-.97-37.86-.35-14.86-.63-29.71-.98-44.57-.13-5.59-.38-11.18-.61-16.77-.49-12.29-1-24.58-1.51-36.87-.32-7.66-.59-15.32-1.01-22.98-.21-3.86-1.23-7.56-2.71-11.13-1.34-3.22-3.53-5.65-6.67-7.23-4.49-2.26-9.01-1.12-11.57,3.24-1.03,1.75-1.65,3.81-2.11,5.81-1.17,5.04-1.06,10.16-.46,15.26.55,4.61,1.94,8.86,3.53,13.32.38,1.08.89,2.27,1.91,2.21.93-.06,1.63-3.03,1.76-4.56.34-3.98.55-7.97.9-11.95.29-3.34.61-6.68,1.1-10,.27-1.83,1.14-5.29,2.64-5.1.92.12,1.75,1.22,2,2,.58,1.81.9,3.74.99,5.62.34,7.02.51,14.05.71,21.07.07,2.63-.74,5-2.04,7.28-2.29,4.02-4.4,8.15-6.71,12.16-1.71,2.96-2.72,6.15-3.22,9.47-.55,3.63-1.08,7.29-1.17,10.95-.22,9.1-.29,18.21-.23,27.32.04,6.39.26,12.78.61,19.16.65,11.8,1.42,23.6,2.23,35.39.74,10.83,7.2,31.33,6.85,39.52-.56,13.22-2.98,22.51-3.88,27.04-2.37,11.84-3.1,14.77-2.53,26.76.3,6.38-.02,10.42,2.21,16.48.6,1.63,1.27,3.32,2.27,4.71,2.07,2.88,5.68,2.67,7.5-.37.81-1.36,1.27-2.92,1.95-4.36.23-.49.66-.89,1.26-1.66,1.09,3.65.85,7.21,3.44,9.93,3.58,1.72,6.63.65,9.39-2.23v-8.98c-2.91-1.5-3.6-3.88-3.76-6.55ZM247.86,829.33c-.03,2.21-.06,4.06-.53,6.24-.18.85-.69,2.89-1.99,3.09-1.19.19-1.87-1.28-2.14-2-.76-2.08-1.5-5.29-1.66-7.47-.67-8.92-.88-16.81.55-25.68.56-3.46.88-6.02,1.31-9.5.65-5.32.69-6.15.92-9.96,0-.61-.82-7.03-.82-7.8l-.74-8.67c-1.86-12.65-1.33-22.91-2.33-35.16-1.26-15.44-2.17-30.91-2.34-46.41-.08-6.86-.28-13.73-.36-20.59-.09-7.42,1.44-14.66,3.38-21.76.12-.43.49-1.64,1.04-1.58.44.05.69,1.79.72,2.49.24,5.11.42,10.22.6,15.32.33,9.42.72,18.83.96,28.25.32,12.29.48,24.59.77,36.89.23,9.42.57,18.84.86,28.25.17,5.58.4,4.98.56,10.56,0,1.39.26,6.92.31,9.91-.09,0-.13,6.03-.12,6.21,1.15,16.39,1.31,32.94,1.06,49.36Z" style="fill:#fff; stroke-width:0px;"/><path d="M395.56,432.56c.38.5.7,1.06,1.15,1.48,4.36,3.98,6.49,9.14,7.19,14.79,1.21,9.74.62,13.25-.13,25.08-.38,3.9-1.57,10.28-2.27,11.71-2.28,4.7-2.37,5.79-8.29,7.18-1.95.25-18.18-2.72-22.94-4.04-.75-.21-1.58-.29-1.98-.64-.82-.72-.56-3.35-.17-5.05,1.04-.45,2.17-.95,3.28-1.43,1.22-3.16.42-4.89.6-8.04.58-10.37,1.92-28.02,2.58-38.38,1.32-20.73,2.64-65.41,4.05-86.13.41-6.06.92-12.11,1.1-18.18.1-3.33-.24-6.7-.66-10.01-.21-1.7-.83-3.42-1.63-4.95-1.08-2.06-1.47-4.16-1.48-6.44-.03-8.31-.08-16.63-.2-24.94-.2-13.26-.48-26.52-.69-39.78-.13-8.31-.09-16.63-.28-24.94-.24-10.86.09-21.72.04-32.58-.03-6.71.12-13.43.2-20.14,0-.62.12-1.23.21-2.04.57.19,1.11.21,1.36.49,5.17,5.89,10.04,11.97,13.39,19.16,2.05,4.4,3.48,8.94,3.9,13.74.21,2.35.04,4.81-.4,7.13-1.47,7.72-2.07,15.5-1.99,23.34.06,6.83-1.38,13.37-4.36,19.45-2.14,4.37-3.31,9-4.32,13.65-1.19,5.45-1.95,11.02-1.1,16.65.12.79-.05,1.66.21,2.38,1.37,3.73,2.63,7.47,3.41,11.38.37,1.84,1.55,3.5,2.1,5.32,1.57,5.13,4.1,9.73,7.67,13.69,6.09,6.77,9.28,14.76,10.58,23.65,1.27,8.73,1.55,17.52,1.3,26.31-.21,7.34-.68,14.68-1.3,22-.37,4.29-.87,32.54-1.79,36.74-1.42,6.46-3.03,8.62-8.32,12.41ZM391.1,332.9c-.2.27-.6.59-.72.99-.33,1.06-.66,2.14-.77,3.24-.38,3.97-.71,7.94-1,11.91-.49,6.68-.93,13.36-1.4,20.03-.72,10.17-1.26,44.31-1.95,54.48-.03.43.26.89.38,1.29,3.86,1.62,5.42,1.18,7.02-2.07,1.57-3.18,2.31-6.62,2.72-10.12.52-4.43.73-32.84,1.13-37.29.97-10.67.87-21.34-.31-31.98-.35-3.16-.99-6.31-2.73-9.08-.51-.82-1.03-1.64-2.37-1.41ZM384.9,434.99c-.23,2.65-.54,5.31-.68,7.97-.37,6.68-1.75,20.63-2.04,27.32-.16,3.5-.26,7.01-.3,10.52-.02,1.77.33,3.49,1.33,5.02,1.14,1.72,3.52,2.07,4.95.59.76-.78,1.41-1.76,1.81-2.77.64-1.62,1.2-3.3,1.51-5.01,1.52-8.19,3.15-23.69,2.03-31.99-.39-2.86-1-5.7-2.6-8.13-1.3-1.98-2.78-3.96-6.01-3.5Z" style="fill:#fff; stroke-width:0px;"/><path d="M353.67,827.64c-5.39-1.29-10.17-2.43-15.18-3.63-.16,1.06-.36,1.82-.36,2.57-.03,8.97.63,17.88,2.06,26.73.25,1.56.82,3.09,1.38,4.57.76,2.03,2.44,2.97,4.49,2.99,2.23.02,4.15-.88,4.87-3.15.81-2.57,1.35-5.22,2.09-8.14,1.7,1.7,2.16,3.77,2.11,5.92-.14,5.79-4.39,10.96-9.6,11.55-7.73.88-12.56-3.12-13.95-8.26-1.03-3.83-1.41-7.84-1.93-11.8-1.36-10.34-1.08-20.73-.95-31.12.12-9.26.41-18.53.55-27.79.04-2.55-.24-5.1-.32-7.65-.53-15.49-1.1-30.97-1.55-46.46-.4-13.57-.7-27.15-.96-40.73-.2-10.86-.54-21.72-.32-32.57.21-10.04.41-20.13,2.51-30.04.33-1.56.71-3.12,1.22-4.62.75-2.2,1.19-2.6,4.11-4.61,3.13-.11,5.31,1.61,6.79,4.25,1.09,1.94,1.99,4.01,2.73,6.1,2.05,5.74,3.16,11.71,4.17,17.7,2.08,12.3,3.42,24.68,3.75,37.15.22,8.31.25,16.62.33,24.93.09,9.59.08,19.18.23,28.77.19,12.3.39,24.6.78,36.9.18,5.58.89,11.15,1.25,16.72.53,8.13.99,16.26,1.4,24.39.09,1.74-.06,3.53-.33,5.25-.19,1.21-.77,2.36-1.35,4.06ZM344.69,813.49c1.61-1.6,1.26-3.12,1.22-4.5-.26-7.34-.65-14.68-.91-22.02-.32-9.1-.57-18.2-.82-27.3-.32-11.66-.67-23.31-.89-34.97-.17-8.63-.23-17.26-.21-25.89.02-14.07-.53-28.12-2.14-42.1-.49-4.28-1.25-8.53-1.98-12.78-.17-1.01-.34-2.25-1.64-2.47-.94.19-1.03.91-1.1,1.49-.37,2.85-.92,5.7-.93,8.56-.08,12.78-.07,25.57.05,38.35.08,8.46.46,16.92.64,25.39.13,6.07.13,12.15.24,18.22.09,5.11.2,10.23.39,15.34.41,11.01.97,22.02,1.27,33.03.24,8.79.16,17.58.26,26.37.01,1.23.22,2.45.33,3.66,1.32.43,2.36.82,3.43,1.1.9.24,1.84.35,2.81.52Z" style="fill:#fff; stroke-width:0px;"/><path d="M320.05,799.43c-1.67.52-2.95-2.22-3.11-3.34-.62-4.42-.98-7.9-1.13-12.35-.35-13.16-1.15-19.25-1.24-26.11-.19-6.1-2.18-79.94-1.61-86.22.31-3.43.03-11.04.2-13.26-.57-10.79-.19-12.8-.93-20.59-.45-6.92-1.86-14.37-2.32-16.72-.57-1.98-.58-6.53-3.21-6.67-2.18-.11-2.7,4.25-2.88,8.77-.08,2.78.24,10.49.22,12.54-.13,10.87,1.37,14.88,1.41,25.75.02,6.23.26,12.47.38,18.7.33,17.42.6,34.84.99,52.25.21,9.58.65,19.16.94,28.75.35,11.5.67,23,.95,34.5.29,11.97.41,23.95.8,35.91.21,6.55,1.03,13.07,2.69,19.43.44,1.68,1.03,3.4,1.96,4.84,1.43,2.24,4.23,2.19,5.48-.1.9-1.64,1.44-3.54,1.82-5.39.65-3.12,1.05-6.29,1.64-9.97.74.8,1.37,1.22,1.62,1.8.36.87.68,1.85.63,2.77-.19,3.83-.29,7.69-.85,11.47-.89,6.03-5.36,8.08-9.04,8.47-5.29.56-10.33-2.3-11.97-6.88-1.68-4.7-2.05-9.68-2.73-14.58-1.23-8.9-1.1-17.86-1.23-26.81-.08-5.44-.1-10.88,0-16.31.26-13.76-.69-27.48-1.02-41.22-.21-9.1-.68-18.2-.91-27.31-.38-14.86-.68-29.72-.98-44.58-.27-13.74-.64-27.48-.69-41.23-.02-7.02.41-14.06.98-21.06.29-3.64,1.17-7.25,2.08-10.8.51-1.98,1.45-3.91,2.54-5.65,2.26-3.63,5.34-3.89,8.28-.9,2.05,2.08,3.48,4.55,4.58,7.25,1.7,4.17,2.8,8.51,3.53,12.92.73,4.41,1.38,8.85,1.74,13.31.68,8.44,1.55,13.35,2.08,24.82-.32,11.54,1.58,42.07,1.77,46.36.25,5.58-.37,53.06.05,63.28.2,4.95.19,9.91.08,14.86-.05,2.22-.06,3.11-.58,5.28-.45,1.88-1.64,3.58-3.02,4.01Z" style="fill:#fff; stroke-width:0px;"/><path d="M378.95,592.13c2.95.56,5.21,1.61,7.52,2.87.15.91.32,1.67.38,2.45.73,9.24,1.39,18.49,2.16,27.72,1.15,13.69,2.49,27.37,3.52,41.08.67,8.92,1.08,17.87,1.33,26.81.26,9.11.09,18.23.27,27.34.22,11.18.59,22.36.9,33.54.03,1.12.05,2.24.04,3.36-.1,13.6.66,27.16,1.85,40.69,1.5,17.03,3.1,34.06,4.75,51.07.43,4.45,1.19,8.86,1.9,13.28.44,2.73,1.13,5.34,4.14,6.54.43.17.82,1.45.42,2.26-.35.72-3.98.28-5.98.16-2.07-.13-4.13-.4-6.2-.59-2.05-.19-4.1-.36-6.38-.56-.05-1-.08-1.72-.13-2.64,1.32-.41,2.78-.27,3.73-1.17.33-.31.51-.88.46-1.29-.2-1.74-.59-3.46-.79-5.2-.66-5.71-.97-11.22-1.59-16.94-.19-1.74-.03-4.88-.2-6.68-3.49-1.29-6.92-2.15-10.78-2.56-1.88,9.82-.71,21.43-3.37,31.15,1.67.7,2.94,1.23,4.37,1.83-.06.8-.12,1.54-.18,2.23-3.77.37-9.4-.12-12.39-1.03-.73-1.23-.37-2.32.9-2.63,2.05-.49,2.94-1.95,3.35-3.67.67-2.78,1.29-5.61,1.54-8.45.98-10.82,1.78-21.65,2.71-32.48,1.28-14.83,1.89-29.66,1.37-44.55-.46-13.26-.83-26.51-1.16-39.77-.17-6.87.05-13.76-.26-20.62-1.03-22.21-.63-44.44-.68-66.66-.02-9.11.05-18.23.39-27.34.35-9.26,1.08-18.5,1.66-27.75.03-.47.2-.93.39-1.82ZM391.07,826.81c0-2.03-.17-8.42-.06-19.45-.25-12.44-.45-6.78-.63-16.83-1.91-31.98-.67-68.73-3.85-90.48-.1-5.91-4.28-39.41-5.42-54.22-.14-1.83-.62-3.64-.94-5.45-.45,1.66-.45,3.25-.45,4.85,0,12.46-.06,24.92.04,37.38.05,6.86.4,13.72.55,20.59.28,13.57.45,27.15.77,40.72.23,9.9.63,19.79.95,29.69.51,15.82.31,31.62-1.29,47.39-.11,1.05-.22,2.11-.14,3.29,2.66.69,7.39,1.74,10.48,2.53Z" style="fill:#fff; stroke-width:0px;"/><path d="M475.64,841.97c.28,2.93.55,5.31.73,7.7.16,2.14-.37,4.13-1.54,5.93-2.47,3.79-7.56,3.84-9.94-.01-.82-1.33-1.37-2.9-1.74-4.44-1.84-7.66-2.66-15.43-2.05-23.31.36-4.65,1.23-9.22,3.46-13.37,3.42-6.37,4.77-13.28,4.89-20.33.17-10.06-.22-20.13-.41-30.2-.12-6.55-.36-13.1-.43-19.66-.12-11.19-.08-22.39-.24-33.58-.18-12.31-.35-24.61-.82-36.91-.21-5.57-1.13-11.11-1.75-16.67-.09-.8-.35-2.11-1.47-1.77-.76.23-1.15,4.21-1.25,6.39-.15,3.03-.23,6.07-.22,9.11.03,13.59.09,27.19.15,40.78.05,10.23.05,20.46.22,30.69.17,9.91.53,19.81.82,29.71.14,4.79.43,9.58.46,14.37.01,2.54-.37,5.09-.6,7.64-.08.92-.75,2.7-1.96,2.84-.87.1-1.55-.94-2.14-1.77-1.78-2.75-2.09-5.94-2.57-9.1-1.31-8.57-1.14-17.2-1.19-25.83-.03-5.75-.42-11.49-.6-17.24-.19-5.91-.34-11.82-.48-17.74-.33-14.06-.62-28.12-.97-42.18-.11-4.31-.36-8.62-.57-12.93-.39-8.04.57-15.98,1.99-23.85.5-2.78,1.55-5.56,2.84-8.09,1.74-3.4,4.62-3.63,7.39-1,1.88,1.79,3.29,3.87,4.38,6.23,2.62,5.71,4.09,11.76,5.41,17.85,1.97,9.1,2.48,18.37,2.73,27.64.29,10.71.22,21.43.42,32.14.26,14.06.55,28.12.97,42.18.29,9.9,1.02,19.79,1.16,29.68.07,4.75.25,9.64-1.42,14.23-1.03,2.84-2.32,5.6-3.74,8.27-2.21,4.14-3.66,8.46-4.39,13.11-.54,3.43.1,6.68.81,9.96.4,1.86,1.46,3.15,3.68,3.56Z" style="fill:#fff; stroke-width:0px;"/><path d="M169.02,827.51c0,1.86.02,3.29,0,4.72-.01.78-.1,1.56-.14,2.29-3.24.7-8.09-.18-16.78-2.98-1.05-1.23-.69-2.69-.57-4.1.1-1.27.25-2.54.38-3.88.84-.87,1.97-1.64,2.48-2.7.52-1.1.61-2.49.59-3.74-.18-10.23-.41-20.46-.66-30.68-.18-7.19-.41-14.38-.62-21.58-.26-9.27-.52-18.53-.78-27.8-.31-10.87-.51-21.74-.97-32.59-.26-6.22-1.02-12.42-1.4-18.64-.24-3.98-.38-7.99-.26-11.98.34-12-.1-23.97-.71-35.95-.23-4.63-.37-9.27-.45-13.9-.12-7.36-.13-14.71-.23-22.07-.17-11.83-.4-23.66-.57-35.49-.04-2.48-.11-4.89-2.72-6.02v-6.23c3.61-1,7.13-1.51,10.77-1.18,1.57,3.43-.11,7.16,1.62,10.62,2.32-2.91,3.22-8.95,6.38-8.84,1,.04,1.94,1.06,2.42,1.9.78,1.35,1.31,2.91,1.62,4.44,1.12,5.4.76,10.82-.17,16.21-.33,1.87-1.2,5.18-2.74,5.2-.87.01-1.68-.88-2.07-1.58-.85-1.52-1.35-3.24-2.1-4.82-.45-.95-1.57-3.25-2.05-3.22-.41.02-1.07,2.21-1.16,3.04-.23,2.06-.37,4.15-.35,6.22.09,14.23-.02,28.48.42,42.7.46,15.01,1.5,30,2.19,45.01.33,7.19.46,14.38.61,21.58.35,17.26.61,34.53.99,51.79.22,9.75.61,19.49.94,29.24.31,9.43.64,18.85.96,28.27.2,6.07.51,12.14.53,18.21.02,3.62.84,6.64,4.64,8.54Z" style="fill:#fff; stroke-width:0px;"/><path d="M331.99,482.88c-2.86-4.93-3.83-10.19-3.57-15.73.23-4.96,1.47-9.45,5.43-12.82.22-.19.3-.55.55-1.01-4.52-7.64-1.58-71.19-1.25-79.86.29-7.67.98-15.3,2.25-22.87.85-5.04,1.83-10.07,3.93-14.76.84-1.87,1.84-3.75,3.14-5.31,2.53-3.03,6.16-3.06,8.58.1,1.82,2.37,3.1,5.17,4.46,7.86.64,1.26.93,2.7,1.49,4.38.74-.32,1.45-.5,2.03-.89,1.44-.96,2.76-2.09,4.51-2.84.3.56.67.93.68,1.31.27,7.54-1.49,14.84-2.25,22.33h-3.31c0,1.35-.02,2.6,0,3.85.17,7.67-3.11,70.37-4.51,77.94-.52,2.8-1.49,5.54-2.5,8.21-.68,1.79-1.86,3.36-3.58,4.39-1.84,1.1-3.79,1.69-5.94,1.02-1.2-.37-2.41-.72-3.62-1.07-2.24,1.63-2.46,3.71-1.95,6.04.44,2.03,1.48,3.47,3.62,4,1.39.34,2.76.79,4.12,1.26,4.56,1.57,7.57,4.73,8.84,9.34.8,2.91,1.43,5.92,1.7,8.92.57,6.38.64,12.79-.84,19.07-.61,2.61-1.49,5.26-2.78,7.6-3.01,5.46-8.79,7.19-14.39,4.56-3.9-1.83-6.76-4.76-8.48-8.73-2.7-6.23-2.68-12.76-1.83-19.31.31-2.41,1.5-4.54,3.81-5.79.54-.29,1.01-.72,1.62-1.17ZM342.24,450.06c1.51.03,2.1-1.49,2.46-2.43.61-1.63.75-3.58.92-5.31.52-5.23,4.29-65.5,4.52-70.75.27-6.21.35-12.43.3-18.64-.02-2.2-.54-4.43-1.06-6.59-.18-.77-.66-2.12-1.61-2.13-1.52-.01-2.15,3.55-2.52,5.38-.67,3.28-1.22,6.59-1.62,9.91-1.05,8.72-5.24,72.47-4.62,81.27.16,2.21.23,4.46.8,6.6.25.95.95,2.66,2.44,2.69ZM347.6,500.92c.08-2.48-.06-4.84-1.01-7.12-1.43-3.43-4.04-5.23-7.6-5.76-2.93-.43-4.19.31-4.91,3.19-1.53,6.16-.56,12.02,2.5,17.54.38.69.93,1.3,1.49,1.86,2.83,2.87,6.43,2.28,8.14-1.37,1.24-2.66,1.51-5.51,1.39-8.34Z" style="fill:#fff; stroke-width:0px;"/><path d="M301.48,303.44c3.95-1.07,7.33-2.5,11.15-2.53,1.09,4-.15,7.8,0,11.6.13,3.58-.24,7.19.11,10.85,3.21-4.62,4.15-10.38,8.13-14.43.29-.3.85-.34,1.36-.52,1.68.93,2.33,2.54,2.96,4.18,1.45,3.76,2.21,7.69,2.46,11.69.46,7.18,1.11,14.35.8,21.56-.26,5.91-.48,11.82-.79,17.72-.67,12.61-4.65,80.23-5.35,92.84-.19,3.35-.38,6.7-.6,10.05-.18,2.85.16,5.47,3.09,7.11-.09,1.85-.18,3.56-.29,5.6-5.35-.8-10.03-2.67-14.93-4.28v-4.95c.81-.77,1.94-1.38,2.31-2.29.59-1.44.87-3.07.95-4.64.43-7.82.73-15.65,1.13-23.47.41-7.98,4.22-70.98,4.61-78.96.24-4.95.44-9.9.41-14.86-.01-2.54-.48-5.08-.89-7.6-.23-1.43-.77-2.79-2.4-3.31-2.04.58-2.51,2.4-2.87,4.07-.88,4.05-1.85,8.13-2.21,12.25-.94,10.82-4.92,76.69-5.57,87.54-.45,7.5-.69,15.01-.98,22.51-.08,2.23,0,4.36,1.57,6.33,1.4,1.75.62,3.92.1,6.22-5.08-1.3-9.92-2.7-14.69-4.53v-5.07c1-.57,1.93-1.11,3.09-1.77.2-.94.57-2,.64-3.08.33-4.94.56-9.89.85-14.84.55-9.25,4.37-73.53,4.95-82.78.63-10.05,1.31-20.09,1.94-30.14.09-1.43-.02-2.88.03-4.31.06-1.95-.16-3.81-1.17-5.55-1.09-1.87-1.19-3.85-.9-6.01.38-2.84.33-5.74.52-8.61.07-1.09.28-2.16.48-3.57Z" style="fill:#fff; stroke-width:0px;"/><path d="M409.57,746.37c-.92-4.01-.62-7.88.76-11.76.58-1.63.7-3.43,1.02-5.16.11-.63.16-1.27.27-1.9,1.14-6.47,1.95-12.87-.26-19.38-.95-2.8-1.03-5.99-1.01-9.01.01-2.84.25-5.82,1.14-8.49.92-2.78,2.79-5.22,5.78-6.64.98,1.53.81,2.97.83,4.36.26,17.41.44,34.83.79,52.24.27,13.73.71,27.47,1.17,41.2.2,5.91.59,11.8.96,17.7.09,1.39.43,2.76.83,5.21,2.64-7.58,3.19-20.74,5.27-21.09,1.65-.28,2.73,1.73,3.01,2.74.78,2.76,1.02,4.87,1.54,7.68,1.61,8.7,2.18,17.44.51,26.2-.41,2.16-1.72,5.95-2.85,5.94-.75,0-1.35-.51-1.63-1.09-.61-1.28-.92-2.71-1.42-4.05-.56-1.49-.99-2.92-1.64-4.37-.1-.23-.61-.88-1.23-.72-.56.15-.71.98-.76,1.49-.35,3.65-.88,7.31-.87,10.96.04,8.94.36,17.88.51,26.83.04,2.23-.16,4.47-.2,6.7-.04,2.06-.25,5.99,0,6.43.69,1.24,2.5,1.28,3.92,2.01v2.7c-5.8-.54-11.36-.34-16.83-1.71v-2.12c1.02-.51,2.21-.69,2.92-1.45.4-.43.54-.97.57-1.41.17-3.35.42-6.7.4-10.05-.07-14.06-.21-28.13-.35-42.19-.02-2.07-.29-4.14-.32-6.21-.03-2.99-.62-5.71-3.25-7.75v-14.26c1.48-1.58,2.87-3.11,4.3-4.6,2.97-3.13,3.3-6.76,2.1-10.7" style="fill:#fff; stroke-width:0px;"/><path d="M452.34,870.06c.87,1.03.89,2.02-.04,2.64-1.58,1.06-3.22,2.09-4.96,2.82-2.49,1.05-4.69.25-6.51-1.65-1.99-2.07-2.84-4.61-2.89-7.42-.04-2.08.11-4.16.1-6.23-.03-6.4-.13-12.8-.15-19.19-.03-9.28,0-18.55,0-27.83v-4.97c-1.05-.71-2.07-1.39-3.24-2.17-.53-4.36-.56-8.8-.3-13.45h3.3c.94-7.04.65-13.91.56-20.78-.1-7.19-.34-14.37-.54-21.56-.18-6.55-.5-13.1-.56-19.65-.13-12.95-.15-25.9-.18-38.86-.03-12.49.86-24.92,2.1-37.34.06-.61.29-1.2.44-1.75,1.68-.44,2.49.55,3.54,1.89.26,5.73.67,11.79.78,17.85.38,21.42.6,42.85,1.01,64.27.27,14.22.72,28.45,1.17,42.67.17,5.58.55,11.15.84,16.95,1.67.83,3.35,1.66,5.35,2.64.09,1.79.23,3.68.28,5.56.05,1.9.01,3.8.01,6.05-1.84-.15-3.34-.28-5.15-.43-.15,1.14-.38,2.03-.38,2.92-.03,10.4-.06,20.8,0,31.2.04,6.55.24,13.1.38,19.64.02.8.04,1.6.16,2.39.38,2.47.94,2.97,3.71,3.48.45.08.89.23,1.18.3Z" style="fill:#fff; stroke-width:0px;"/><path d="M15.01,546.86c-.13.43-.38.88-.39,1.33-.16,8.79-.31,17.57-.43,26.36-.01.8.16,1.59.15,2.39-.06,4.12,1.14,7.56,5.17,9.43.08,1.27.19,2.37.2,3.47.01.94-.09,1.89-.15,2.83-3.15-.27-15.12-4.37-19.56-6.69v-5.64c1.1-.42,2.1-.79,2.93-1.1,1.5-1.6,1.26-3.41,1.28-5.15.06-7.03.06-14.07.17-21.1.28-16.93.62-33.87.92-50.8.04-2.4.05-4.8.04-7.19-.02-5.91-.11-4.93-3.65-8.35-.31-1.78-.2-3.61.66-5.72,2.11.61,4.08,1.14,6.03,1.76,4.86,1.55,9.7,3.18,14.56,4.71,3.44,1.08,5.65,3.48,7.29,6.53,1.76,3.28,2.69,6.82,3.3,10.46,1.71,10.19,1.69,20.37-.52,30.47-.61,2.77-1.72,5.51-3.07,8.01-2.63,4.87-6.61,6.47-12.12,4.64-.75-.25-1.52-.46-2.28-.67-.14-.04-.31.01-.53.03ZM16.07,494.32c-.14.65-.35,1.26-.39,1.88-.84,12.43-.77,24.89-.72,37.34,0,.94.22,1.9.49,2.81.47,1.6,1.24,2.97,3.14,3.18,1.49.16,2.71-.68,3.46-2.73.6-1.64,1.11-3.35,1.34-5.07.95-7.3,1.34-14.64.69-21.98-.31-3.48-1.04-6.94-1.76-10.37-.39-1.88-1.23-3.64-2.79-4.91-.91-.74-1.89-1.22-3.47-.15Z" style="fill:#fff; stroke-width:0px;"/><path d="M106.17,512.65c-.98.08-.78,1.62-.78,2.32.01,2.23.25,4.46.3,6.69.11,4.31.14,8.62.23,12.94.03,1.42.13,2.84.2,4.32,1.46.62,2.76,1.17,4.19,1.77.66,2.63.54,5.28.05,8.14-1.36-.18-2.59-.33-3.72-.48-.28.26-.68.45-.69.66-.24,3.5-.57,7-.6,10.5-.07,11.5-.11,23.01,0,34.51.08,8.78.37,17.56.61,26.33.08,3.07.68,6.11,2.31,8.71,1.62,2.57,2.02,5.37,2.17,8.23.29,5.58.39,11.17.53,16.76,0,.26-.26.53-.55,1.08-1.37-.56-1.99-1.89-2.85-2.91-.92-1.1-1.77-2.25-2.63-3.4-.86-1.15-1.65-2.34-2.53-3.47-.78-1-1.6-1.99-2.47-2.91-.99-1.04-2.05-2.02-3.1-3-1.05-.97-2.13-1.91-3.22-2.87-.14-5.31-.28-10.4-.42-15.66,2.68-1.17,3.25-3.41,3.25-5.91-.01-4.15-.11-8.31-.1-12.46.03-18.21.09-36.41.14-54.62,0-.64-.06-1.27-.1-2.18-.87-.66-1.85-1.39-2.91-2.19v-7.12c1.07-.2,1.95-.36,2.99-.55.28-3.85.42-7.67.89-11.45.45-3.63,1.09-7.26,1.95-10.82.44-1.82,1.31-3.63,2.38-5.18,2.48-3.57,6.8-3.79,9.9-.7.45.45.93.91,1.23,1.46,2.57,4.69,3.41,9.61,1.7,14.77-.45,1.35-1.13,2.7-2.82,2.91-1.23.15-2.29-1.13-2.75-3.4-.4-2.03-.7-4.09-1.01-6.14-.24-1.55-.84-4.76-1.74-4.68Z" style="fill:#fff; stroke-width:0px;"/><path d="M57.2,56.92c-1.51-.19-2.78,1.98-3.34,3.44-.85,2.23-1.47,4.55-2.18,6.84-.47,1.5-1.22,3.79-2.26,4.06-1.78.46-2.78-1.42-3.6-2.81-3.06-5.21-1.21-13.73,3.72-17.27,3.04-2.18,7.05-2.93,10.29-1.47,3.8,2.37,6.07,3.36,6.3,9.5.2,5.24.37,10.93-.02,16.17-.74,10.03-1.31,58.44-2.13,68.46-.12,1.43-.11,2.87-.17,4.3-.15,3.29,1.89,8.39,1.89,8.39,0,0-1,7.66-1.28,11.47-.17,2.46-.96,8.59-2.29,10.61-.82,1.25-1.44,1.7-2.3,1.27-1.38-.7-1.77-2.83-2.41-5.7-.59-4.26-.95-8.56-1.39-12.84-.11-1.11-.18-2.22-.27-3.29-1.16-.38-1.44.49-1.85,1.11-.88,1.33-1.64,2.76-2.64,3.99-.66.8-1.46,1.83-2.45,1.93-2.72.26-3.65-3.14-4.35-5.25-1.04-3.17-2.06-6.4-2.57-9.69-1.28-8.26-.21-57.25,1.37-65.48.33-1.71.65-2.37,1.26-4.01.72-1.35,1.52-2.48,4.22-3.49,1.79-.67,3.59-1.34,5.33-2.13,1.58-.71,3.08-1.59,4.62-2.4.6-4.02,1.14-7.78.81-11.62-.14-1.63-.27-3.83-2.33-4.08ZM57.84,80.09c-3.98,1.7-5.87,4.25-6.69,7.73-1.18,5.02-.93,47.76-.47,52.88.17,1.87.81,3.72,1.39,5.53.3.93.99,1.87,2.32.96,2.36-1.61,2.48-4.98,2.75-8,.34-3.82.1-45.28.36-49.1.21-3.14.71-6.27.33-10.01Z" style="fill:#fff; stroke-width:0px;"/><path d="M35.27,120.12c.68.07,1.14.11,1.58.16.68,3.5-.23,16.75-2.13,30.94-3.98,4.72-7.21,5.39-12.56,2.93-5.2-2.39-8.75-6.32-11.15-11.39-3.82-8.03-6.32-19.2-7-28.03-1.01-13.14-.68-79.74,2.46-92.58,1.45-5.92,3.92-8.98,7.2-14.15,1.18-1.86,2.65-3.63,4.29-5.09,3.9-3.46,8.39-3.63,12.98-1.55,2.63,1.19,4.94,2.96,6.82,5.18,2.68,3.17,4.21,6.5,3.26,10.97-.99,4.66-1.14,9.51-1.67,14.27-.13,1.23-.03,2.54-.9,3.47-1.5.04-1.8-.85-1.88-1.82-.28-3.34-.42-6.7-.79-10.03-.26-2.37-.71-4.74-1.26-7.06-.33-1.38-.94-2.72-1.58-4-2.71-5.37-6.83-5.73-10-.49-2.69,4.44-4.23,9.3-5.34,14.31-2.97,13.36-3.38,80.43-2.58,94.06.34,5.73,1.12,11.45,2.84,16.98.77,2.45,1.64,4.86,3.4,6.8,2.16,2.38,4.53,2.33,6.38-.32,1.08-1.55,2.03-3.3,2.58-5.09,1.41-4.57,2.57-9.23,3.83-13.85.41-1.52.8-3.06,1.2-4.61Z" style="fill:#fff; stroke-width:0px;"/><path d="M62.23,581.6c1.35,1.36,1.65,3.05,1.4,4.86-.96,6.96-2.24,13.86-4.55,20.52-.37,1.05-.85,2.07-1.39,3.04-.79,1.41-.97,1.48-3.77,2.82-4.06-.97-6.27-4.04-7.94-7.57-2.75-5.79-4.57-11.91-5.99-18.14-2-8.76-2.57-17.71-2.59-26.63-.02-6.82.01-13.74,1.44-20.5.62-2.96,1.32-5.91,2.16-8.81.39-1.36,1.11-2.66,1.87-3.86,3.36-5.33,9.04-6.13,13.85-2,2.36,2.03,3.94,4.65,4.89,7.55.84,2.57,1.63,5.22,1.88,7.89.52,5.55.82,11.14.88,16.71.02,2.26.19,4.84-2.06,6.9-2.35-.66-4.75-1.43-7.19-2-2.45-.58-4.68-2.11-7.4-1.78-.16.48-.43.92-.44,1.36-.21,7.69.18,15.32,2.18,22.79.66,2.47,1.44,4.93,3.28,6.83.54.56,1.24.96,1.75,1.34,2.33.06,3.42-1.37,4.09-3.01.96-2.35,1.65-4.82,2.42-7.24.2-.64.41-1.19,1.24-1.09ZM51.85,530.24c-2.46-.39-2.63,2.16-2.93,3.36-.58,2.31-.65,3.88-1.01,6.24-.58,3.77-.72,7.57-.49,11.44,2.31,1,4.4,2.05,7.07,1.74.24-.79.65-1.51.65-2.24.03-4.15.04-8.29-.12-12.43-.07-1.73-.16-2.49-.59-4.19-.31-1.24-.53-3.58-2.59-3.91Z" style="fill:#fff; stroke-width:0px;"/><path d="M279.85,293.29c4.17-1.45,7.06-1.73,11.38-3.07.83,3.11.68,5.81.78,8.47.57,15.67,0,37.11-1.3,52.7-.79,9.55-1.81,52.72-2.4,62.29-.79,12.75-1.5,25.51-2.18,38.27-.14,2.7-.02,5.41-.02,7.88,1.11,1.23,1.96,2.16,2.77,3.05.32,1.84.3,3.53-.33,5.45-5.27-.99-10.01-2.82-14.89-4.3-.98-1.9-.82-3.71-.16-5.65.84-.45,1.67-.88,2.53-1.35.17-.42.45-.85.51-1.3.25-1.9.53-3.8.64-5.71.48-8.61.82-17.23,1.38-25.83.74-11.47,2.05-56.55,2.81-68.02.46-6.85.89-32.7,1.12-39.56.06-1.87-.09-3.98-.89-5.61-1.57-3.2-1.8-6.25-1.65-11.04.03-.94-.23-5.36-.1-6.68Z" style="fill:#fff; stroke-width:0px;"/><path d="M97.18,720.46c5.58-5.81,8.99-10.82,14.1-16.14.94.26.72,1.21.75,1.91.21,6.22.46,12.44.5,18.66.01,1.87-.31,3.87-1,5.6-1.7,4.25-2.23,8.65-2.19,13.13.06,7.18.23,14.36.41,21.54.14,5.75.34,11.49.53,17.23.24,7.02.5,14.03.77,21.05.13,3.45.86,6.67,3.76,8.92.43,3.11.3,6.09.12,9.43-5.69-.82-9.07-2.95-14.38-4.45-.9-3.19-.36-6.35-.41-9.67.76-.7,1.56-1.44,2.67-2.45.13-1.92.47-4.14.41-6.35-.37-13.4-.8-26.8-1.29-40.2-.12-3.19-.44-6.38-.89-9.53-.2-1.36-.73-2.82-1.56-3.89-.83-1.08-1.41-2.1-1.46-3.42-.29-7.17-.56-14.34-.84-21.38Z" style="fill:#fff; stroke-width:0px;"/><path d="M436.57,468.2c-4.88-1.41-9.59-2.77-13.97-4.03-1.48.77-1.29,1.84-1.36,2.73-.42,5.61-.6,4.9.4,10.42.31,1.71.92,3.4,1.65,4.98.52,1.12,1.36,2.17,2.27,3.01,1.45,1.33,3.39,1.33,4.73-.09,1.07-1.13,1.89-2.54,2.63-3.93.65-1.23,1.03-2.6,1.56-3.99,2.17,1.87,2.45,2.19,2.07,3.9-.83,3.74-1.62,7.51-3.58,10.88-.48.83-.95,1.68-1.56,2.4-2.37,2.81-4.55,3.35-8.11,2.2-2.36-.77-4.22-2.16-5.73-4.11-2.51-3.24-4.01-6.96-4.71-10.9-.87-4.86-1.12-3.51-1.24-8.43-.27-10.55.79-58.58,2.9-68.95.67-3.27,1.48-6.56,2.66-9.68,1-2.66,2.44-5.2,3.98-7.59,1.81-2.8,6.15-4.07,9.59-.86,2.18,2.03,3.59,4.48,4.65,7.16,1.52,3.88,2.57,7.91,3.08,12.04.73,5.87.85,49.28.45,55.19-.16,2.47,0,5.14-2.36,7.66ZM427.51,395.09c-1.71-.45-2.1,1.72-2.47,2.92-2.01,6.44-3.03,50.55-3.09,57.11q3.65,1.94,7.05,2.05c.21-.37.58-.74.65-1.17,1.2-6.52.77-50.53-.04-57.01-.11-.93-.51-1.85-.94-2.7-.25-.5-.68-1.07-1.17-1.19Z" style="fill:#fff; stroke-width:0px;"/><path d="M68.09,531.47c1.74-.24,2.97-.5,4.22-.57,2.2-.13,4.41-.51,6.68-.24,1.13,3.18.5,6.43,1.08,9.78,1.58-.88,1.75-2.25,2.4-3.27.77-1.21,1.43-2.51,2.34-3.6,1.26-1.52,3.33-1.34,4.47.34.53.78,1.01,1.66,1.26,2.57,1.73,6.38,1.08,12.67-.98,18.86-.36,1.08-.95,2.04-2.42,2.25-3.31-1.6-2.45-6.05-5.14-8.13-1.13-.13-1.41.75-1.5,1.46-.31,2.37-.66,4.76-.66,7.15,0,15.35.16,30.71.14,46.06,0,4.42,1.31,8.15,4.63,11.13.37,4.19.55,8.3.13,12.92-5.86-3.83-11.39-7.45-16.95-11.08-.72-3.56-.52-7.05-.26-10.43,2.82-2.24,2.84-2.24,3-5.11.07-1.28.04-2.56.04-3.84,0-13.6-.01-27.19.01-40.79,0-4.32.06-8.64.22-12.95.11-2.85-.35-5.4-2.71-7.02v-5.48Z" style="fill:#fff; stroke-width:0px;"/><path d="M90.46,803.67c.04,2.61.11,5.15.1,7.7,0,.93-.17,1.86-.26,2.78-3.94-.13-9.93-2.5-13.65-4.69-.07-4.6-.18-9.37-.19-14.14,0-.75.2-1.73.69-2.21,1.45-1.4,1.5-3.14,1.5-4.88,0-3.83-.13-7.66-.2-11.49-.05-2.65-.74-5.03-2.91-6.82-.21-4.67-.5-9.28-.61-13.9-.11-4.46-.02-8.93-.02-13.57,3.54-4.75,8.4-12.56,12.61-14.62.84.7.74,1.69.76,2.62.14,7.02.21,14.04.42,21.06.07,2.62-.23,5.05-1.67,7.32-1.41,2.22-1.62,4.79-1.81,7.36-.36,4.62-.07,9.23.05,13.84.11,4.46.36,8.93.69,13.38.28,3.88,1.08,7.61,4.51,10.26Z" style="fill:#fff; stroke-width:0px;"/><path d="M282.77,225.79c6.03-3.58,4.34-4.04,8.21-4.21.97,1.74.63,3.69.64,5.56.03,11.67,0,23.33.03,35,.03,8.63.51,1.8.56,10.43,0,1.58-.11,3.15-.18,5.07-.97-.05-1.77.11-2.41-.15-3.23-1.34-3.19-3.1-5.96-5.03.08.71-.35-26.9-.88-46.66Z" style="fill:#fff; stroke-width:0px;"/><path d="M57.65,747.28c4.79-.25,5.23,8.65,5.6,10.14,1.46,5.71,1.63,5.95,2.1,12.48.93,10.73.41,13.37-.15,22.46-.18,2.99-1.05,5.94-1.74,8.88-.49,2.11-1.56,4.29-3.86,4.71-3.72.68-5.95-2.61-7.23-5.93-.86-2.22-1.66-4.52-2.09-6.85-1.98-10.77-1.66-18.53.33-29.32.4-2.19,2.07-16.33,7.03-16.58Z" style="fill:#fff; stroke-width:0px;"/><path d="M463.58,869.54c.16-.71.34-2.31.9-3.77.68-1.76,2.13-2.74,4.08-2.81,2.13-.07,3.76.87,4.62,2.78,1.64,3.64,1.09,7.23-.96,10.5-1.6,2.55-5,2.46-6.9.04-1.06-1.35-1.69-3.5-1.74-6.75Z" style="fill:#fff; stroke-width:0px;"/></svg>